<svg width="150" height="51" viewBox="0 0 150 51" fill="none" xmlns="http://www.w3.org/2000/svg">
<g clip-path="url(#clip0_2081_6510)">
<g clip-path="url(#clip1_2081_6510)">
<path fill-rule="evenodd" clip-rule="evenodd" d="M55.7762 6.93096C55.8885 6.08037 55.9786 5.15767 56.0954 4.31868C56.1361 4.02617 56.166 3.74401 56.2019 3.45162L56.2821 2.80177C56.2968 2.69628 56.2825 2.6089 56.3325 2.6089H57.8703L57.9899 3.58452C58.0301 3.91307 58.0628 4.23104 58.1087 4.56088C58.1546 4.89024 58.1832 5.20618 58.229 5.53569C58.2749 5.86546 58.3076 6.18343 58.3479 6.51212L58.7077 9.43788C58.7273 9.58631 58.7337 9.55687 58.5782 9.55639H57.7596L57.6127 8.03276C57.6051 7.97333 57.5936 7.89138 57.5936 7.81954H56.5869C56.5755 7.95685 56.5507 8.11281 56.543 8.25127C56.5294 8.49577 56.4865 8.85994 56.4642 9.12391C56.4526 9.26176 56.4325 9.41874 56.4211 9.55639H55.4585L55.5091 9.10906C55.6067 8.40406 55.6822 7.64274 55.7762 6.93096ZM56.8019 5.67788C56.7809 5.82611 56.7796 5.96335 56.7608 6.11253L56.6755 6.98965H57.5052L57.2538 4.11035C57.2459 4.05201 57.2405 3.94666 57.2397 3.89204C57.2377 3.75032 57.2066 3.59449 57.2066 3.44959H56.9963C56.9509 3.44959 56.9622 3.49097 56.9628 3.53791L56.9403 3.88044C56.9077 4.30546 56.8612 4.81393 56.8413 5.23061L56.8019 5.67788ZM63.6559 6.07142C63.6559 6.64834 63.6706 7.22193 63.6776 7.79769C63.6785 7.86812 63.6893 7.92177 63.6892 8.00746C63.689 8.17041 63.6924 8.47461 63.7517 8.59767C63.8646 8.83261 64.1196 8.8482 64.3751 8.8482H69.3311C69.4721 8.8482 69.6108 8.83986 69.717 8.80262C69.7979 8.77413 69.857 8.73159 69.9081 8.66192C70.0213 8.50792 70.0031 8.21057 70.0056 8.01804C70.0063 7.94938 70.0173 7.90237 70.0171 7.8194C70.0158 7.27688 70.0391 6.68429 70.0391 6.13783C70.0391 5.98411 70.0281 5.87109 70.0281 5.7175L70.0171 4.44528C70.0172 4.30058 70.0059 4.17915 70.006 4.02494C70.0063 3.60331 69.9585 3.31695 69.4419 3.31695H64.2424C63.9648 3.31695 63.7825 3.42353 63.7242 3.63961C63.7038 3.71517 63.6886 3.94787 63.6891 4.0248C63.6899 4.17222 63.678 4.28606 63.6782 4.42323C63.6787 4.95917 63.6559 5.52992 63.6559 6.07142ZM88.5154 5.46479L88.3698 6.98965H89.1994L89.1556 6.54678C89.1345 6.16559 89.0635 5.72272 89.0446 5.33026C89.0423 5.28149 89.0349 5.28433 89.0334 5.2308C89.0318 5.16548 89.0276 5.06887 89.0177 5.00314L88.9165 3.66626C88.9084 3.61172 88.9008 3.50087 88.9008 3.44966H88.6684C88.6586 3.49171 88.6472 3.62204 88.6461 3.67067L88.6015 4.34508C88.5741 4.69398 88.5514 5.12287 88.5154 5.46479ZM91.8876 3.44959V6.2263H92.1864C92.7291 6.2263 92.8846 6.05718 92.8833 5.55149C92.8831 5.4618 92.8947 5.40699 92.8947 5.33067V4.33429C92.8947 4.25953 92.883 4.21136 92.8833 4.12446C92.8855 3.38805 92.5118 3.44959 91.8876 3.44959ZM59.1756 6.98965H60.0385C60.0899 6.98965 60.0603 7.05559 60.0604 7.12214C60.0604 7.17674 60.0644 7.24588 60.06 7.29879C60.0349 7.6036 60.0566 7.94545 60.0602 8.25115C60.0647 8.63688 60.2332 8.85302 60.6345 8.84353C61.103 8.83233 61.135 8.586 61.1764 8.216C61.1836 8.15169 61.1724 8.08507 61.181 8.02143C61.2019 7.86913 61.1775 7.67897 61.178 7.53169L61.1653 7.23455C61.1481 7.07411 61.1017 6.85756 61.0251 6.75525C60.7633 6.40567 59.7765 6.57588 59.3724 5.9299C59.0729 5.45095 59.1314 4.69581 59.1314 4.10227C59.1314 3.62312 59.2188 3.18853 59.4435 2.9321C59.5035 2.86378 59.556 2.80802 59.6436 2.75605C59.8632 2.62614 60.1651 2.55822 60.4717 2.54242H60.7552C60.9725 2.55362 61.18 2.59024 61.3483 2.64872C61.5287 2.71141 61.6701 2.81432 61.7789 2.94824C62.1903 3.45494 62.0741 4.42967 62.0741 5.11996H61.167C61.167 4.88265 61.178 4.68299 61.178 4.44515C61.178 4.1672 61.2112 3.67943 61.0741 3.49816C60.9179 3.29165 60.5341 3.27591 60.3184 3.37543C60.2378 3.41281 60.187 3.47265 60.1491 3.54904C60.1071 3.63357 60.0885 3.71036 60.0746 3.81735C60.0674 3.87277 60.0702 3.93695 60.0638 3.98356C60.0566 4.03627 60.0608 4.09285 60.0608 4.14658C60.0608 4.5273 60.0309 5.00958 60.1665 5.33515C60.3491 5.7736 61.1395 5.56791 61.6726 6.01939C62.0359 6.32677 62.1184 6.9254 62.1184 7.44322C62.1184 8.26932 62.1776 9.19013 61.4012 9.50253C61.2274 9.57247 61.0055 9.61155 60.7759 9.62247H60.5013C60.2846 9.61222 60.0753 9.5779 59.9072 9.52166C59.5746 9.41061 59.3936 9.19433 59.2734 8.87202C59.1232 8.46884 59.1474 7.79539 59.1531 7.33211C59.154 7.26053 59.1756 7.11827 59.1756 6.98965ZM62.7799 8.50724C62.7459 8.22773 62.7474 7.90183 62.7488 7.6091C62.7494 7.50558 62.7376 7.42477 62.7376 7.31046C62.7378 6.90498 62.7299 6.46788 62.7299 6.08248C62.7299 5.69708 62.7376 5.26005 62.7376 4.85464C62.7376 4.65097 62.7488 4.46088 62.7488 4.24623C62.7488 3.73892 62.7757 3.14721 63.1785 2.81751C63.4169 2.6224 63.8203 2.54256 64.1427 2.54256H69.5413C70.0015 2.54256 70.5083 2.66385 70.7397 3.08101C70.8074 3.20298 70.8588 3.35359 70.8902 3.50568C70.9139 3.62081 70.9316 3.77372 70.9348 3.90364C70.9363 3.96016 70.9466 3.97168 70.9466 4.03566C70.9468 4.13159 70.9466 4.22792 70.9461 4.32377C70.9457 4.41862 70.9574 4.49338 70.9574 4.60016C70.9574 4.9882 70.9684 5.34661 70.9684 5.73962L70.9574 7.58712C70.9574 7.69546 70.9458 7.76045 70.9462 7.86364C70.9474 8.16837 70.9427 8.36796 70.8879 8.66822C70.8346 8.9611 70.6987 9.22221 70.4595 9.39032C70.2519 9.53631 69.8978 9.62254 69.5413 9.62254H64.1427C63.3509 9.62254 62.8758 9.29473 62.7799 8.50724ZM71.6789 8.69062C71.6023 8.36342 71.5985 7.75624 71.6095 7.38746L71.6313 7.09941C71.6347 7.04758 71.6142 6.98958 71.6652 6.98958H72.528C72.528 7.07357 72.5165 7.1104 72.5168 7.18849L72.5059 7.58705C72.5065 7.81282 72.5031 8.35162 72.5625 8.5261C72.5983 8.63193 72.64 8.6995 72.729 8.75784C72.8846 8.85994 73.2133 8.86632 73.3765 8.78939C73.6576 8.6571 73.6454 8.21674 73.6454 7.87456C73.6454 7.53583 73.659 6.99602 73.4719 6.74277C73.3774 6.61523 73.2163 6.58083 73.0457 6.53823C72.8734 6.49516 72.714 6.45568 72.5454 6.40798C72.3057 6.34027 72.0084 6.19184 71.8663 5.98099C71.5337 5.48806 71.5876 4.76928 71.5876 4.1575C71.5876 3.81993 71.622 3.40142 71.7793 3.12117C71.8157 3.05624 71.8277 3.0209 71.8845 2.94994C71.9959 2.81093 72.1447 2.71053 72.3329 2.64601C72.5101 2.58522 72.7493 2.54242 72.9816 2.54242C73.4375 2.54242 73.9082 2.57233 74.2233 2.92694C74.5974 3.34768 74.5415 4.12609 74.5415 4.71074C74.5415 4.86128 74.5303 4.9705 74.5303 5.11996H73.6232C73.6232 4.81155 73.6675 3.86829 73.6026 3.64707C73.5767 3.55833 73.5289 3.47611 73.4596 3.42503L73.3233 3.35121C73.1186 3.27754 72.7181 3.29152 72.5942 3.57122C72.5001 3.78397 72.5162 4.2881 72.5166 4.57831C72.5167 4.64487 72.5276 4.65857 72.5284 4.72132C72.5314 4.9625 72.5411 5.1747 72.6494 5.38589C72.857 5.79036 73.9828 5.54946 74.3681 6.32203C74.5037 6.59366 74.5746 6.96291 74.5746 7.36568C74.5746 7.79539 74.5918 8.24497 74.5111 8.65181C74.4665 8.87676 74.4026 9.0134 74.285 9.18911C74.0737 9.50436 73.5729 9.62247 73.1807 9.62247C72.4126 9.62247 71.8671 9.49161 71.6789 8.69062ZM75.4574 9.1602C75.3047 8.93206 75.2239 8.6073 75.216 8.33961L75.1941 5.4076L75.2047 4.04651C75.2056 3.98498 75.2162 3.97603 75.2168 3.91469C75.2201 3.58066 75.3092 3.23297 75.5134 2.98331C75.5275 2.96615 75.5359 2.9595 75.5497 2.94227C75.6614 2.80319 75.8283 2.71127 75.9954 2.64668C76.3425 2.51236 77.0306 2.51141 77.3515 2.63095C77.4552 2.66962 77.6374 2.74215 77.7191 2.81629C77.7906 2.88108 77.8364 2.91479 77.8959 3.00475C77.978 3.1289 78.0277 3.23012 78.0719 3.38188C78.1936 3.80032 78.1589 4.37785 78.1589 4.84344C78.1589 4.9511 78.1478 5.01399 78.1478 5.11996H77.2076L77.2186 3.98057C77.2186 3.73146 77.2041 3.51328 77.0064 3.39633C76.9525 3.36444 76.8752 3.33948 76.8066 3.33059C76.4781 3.28806 76.2252 3.37842 76.1625 3.72095L76.1452 3.96917C76.1426 4.05561 76.1454 4.1478 76.1454 4.23498C76.1456 4.33578 76.1337 4.39826 76.1342 4.48931L76.1233 5.2749C76.1233 5.81851 76.1061 6.59644 76.1344 7.12227L76.134 7.6979C76.1341 7.7692 76.1461 7.79688 76.1456 7.87435C76.1426 8.39428 76.0908 8.84807 76.6986 8.84807C77.1015 8.84807 77.2517 8.64299 77.2517 8.23968V7.00064H78.1921C78.1921 7.37688 78.2171 8.09124 78.1719 8.45188C78.1405 8.70249 78.0789 8.93009 77.9686 9.10051C77.9076 9.1948 77.855 9.26204 77.769 9.33231C77.7232 9.36983 77.6968 9.38584 77.6456 9.41902C77.4576 9.54079 77.1327 9.60971 76.7943 9.62247H76.5646C76.2337 9.61006 75.9166 9.5433 75.7292 9.41922C75.6083 9.3391 75.5376 9.28028 75.4574 9.1602ZM78.8779 9.52288V2.64201C78.8779 2.61657 78.8857 2.60883 78.9112 2.60883H79.8184V5.61784H80.8251V2.60883H81.7654V9.55613H80.8251V6.45852H79.8184V9.55613H78.9112C78.8857 9.55613 78.8779 9.54839 78.8779 9.52288ZM82.5729 9.55613V2.60883H83.4802C83.5056 2.60883 83.5132 2.61657 83.5132 2.64201V9.52288C83.5132 9.54839 83.5056 9.55613 83.4802 9.55613H82.5729ZM84.3098 9.55613V2.60883H85.2502V8.7153H86.7989V9.55613H84.3098ZM87.7912 4.32025L87.9901 2.6937C87.995 2.64879 87.9811 2.60883 88.0269 2.60883H89.5646C89.5661 2.67538 89.5877 2.7882 89.5957 2.85421L89.6852 3.58329C89.701 3.75086 89.7224 3.90867 89.745 4.07677C89.8097 4.56109 89.8574 5.05829 89.9233 5.53569C89.9689 5.86525 90.0019 6.18234 90.0423 6.51198C90.0816 6.83191 90.1256 7.16237 90.162 7.48753C90.1803 7.65116 90.1988 7.81099 90.222 7.98067C90.2883 8.46796 90.335 8.95234 90.402 9.43788C90.4223 9.58462 90.4284 9.55673 90.2725 9.55626H89.4539C89.4427 9.42125 89.4157 9.26204 89.4098 9.12472C89.4038 8.98666 89.381 8.82419 89.3673 8.69156L89.288 7.8194H88.2814L88.2167 8.47379C88.2087 8.54951 88.2098 8.61341 88.1991 8.68858L88.1592 9.12445C88.1516 9.26285 88.1268 9.41888 88.1154 9.5562H87.1529L87.3631 7.80827C87.3953 7.51873 87.4324 7.2144 87.4704 6.93096C87.5097 6.63748 87.5378 6.35764 87.5767 6.06368C87.6521 5.49206 87.7158 4.89126 87.7912 4.32025ZM90.9474 9.52288V2.64201C90.9474 2.61657 90.9551 2.60883 90.9806 2.60883H92.1422C92.4518 2.60883 92.7396 2.62627 92.987 2.69322C93.6918 2.88447 93.826 3.54123 93.8236 4.17968C93.8232 4.27066 93.8354 4.31482 93.8348 4.40077C93.8344 4.47818 93.8347 4.55579 93.8347 4.63319C93.8347 5.28902 93.8964 6.1569 93.5314 6.61991C93.4575 6.71394 93.2969 6.86318 93.1821 6.88992C93.1863 6.94155 93.2129 7.01569 93.2276 7.06569C93.2429 7.1184 93.2575 7.17091 93.2743 7.22906C93.3326 7.4304 93.929 9.49425 93.9342 9.55606H92.9386L92.3633 7.3435C92.3498 7.28964 92.3382 7.24215 92.3236 7.18408C92.305 7.10999 92.3028 7.05585 92.2638 7.05585H91.8876V9.55606H90.9805C90.955 9.55606 90.9474 9.54839 90.9474 9.52288ZM97.1347 0.480469H52.258C51.5114 0.480469 50.9004 1.09131 50.9004 1.8381V10.327C50.9004 11.0737 51.5113 11.6847 52.258 11.6847H97.1347C97.8815 11.6847 98.4925 11.0738 98.4925 10.327V1.8381C98.4925 1.09137 97.8815 0.480469 97.1347 0.480469Z" fill="#7A7A7A"/>
<path d="M52.93 39.7306H55.8774C56.6332 39.7306 57.011 40.1085 57.011 40.8643V44.3106C57.011 48.2406 55.046 50.2056 51.116 50.2056H46.5815C42.6515 50.2056 40.6865 48.2406 40.6865 44.3106V19.8236C40.6865 15.8936 42.6515 13.9287 46.5815 13.9287H51.116C55.046 13.9287 57.011 15.8937 57.011 19.8236V23.27C57.011 24.0258 56.6332 24.4036 55.8774 24.4036H52.93C52.1742 24.4036 51.7963 24.0258 51.7963 23.27V22.227C51.7963 20.927 51.63 20.0882 51.2975 19.7104C50.965 19.3324 50.1487 19.1435 48.8488 19.1435C47.7302 19.1435 46.9593 19.3173 46.5361 19.665C46.1128 20.0126 45.9012 20.8667 45.9012 22.227V41.9072C45.9012 43.2675 46.1128 44.1217 46.5361 44.4693C46.9593 44.8168 47.7302 44.9907 48.8488 44.9907C49.4231 44.9907 49.8388 44.9756 50.0957 44.9454C50.3527 44.9152 50.64 44.8094 50.9573 44.6279C51.2748 44.4466 51.494 44.1367 51.6149 43.6983C51.7357 43.26 51.7962 42.6629 51.7962 41.9072V40.8643C51.7962 40.1085 52.1742 39.7306 52.93 39.7306ZM58.8252 48.6185V15.0623C58.8252 14.3066 59.2032 13.9287 59.9589 13.9287H62.9063C63.6621 13.9287 64.04 14.3066 64.04 15.0623V43.6304C64.04 44.1442 64.1383 44.4995 64.3348 44.696C64.5313 44.8925 64.8864 44.9908 65.4004 44.9908H70.4339C71.1896 44.9908 71.5674 45.3686 71.5674 46.1244V49.0719C71.5674 49.8276 71.1896 50.2056 70.4339 50.2056H60.4123C59.8077 50.2056 59.392 50.0921 59.1653 49.8655C58.9386 49.6387 58.8252 49.223 58.8252 48.6185ZM84.0833 41.4537V15.0623C84.0833 14.3066 84.4612 13.9287 85.2169 13.9287H88.1644C88.9202 13.9287 89.2981 14.3066 89.2981 15.0623V44.3106C89.2981 48.2406 87.3331 50.2056 83.4031 50.2056H78.8232C74.8931 50.2056 72.9282 48.2406 72.9282 44.3106V15.0623C72.9282 14.3066 73.306 13.9287 74.0618 13.9287H77.0093C77.765 13.9287 78.143 14.3066 78.143 15.0623V41.4537C78.143 42.8444 78.3546 43.7815 78.7778 44.2652C79.201 44.7489 79.9265 44.9908 80.9545 44.9908H81.2264C82.3148 44.9908 83.063 44.7565 83.4711 44.2879C83.8792 43.8194 84.0833 42.8747 84.0833 41.4537ZM92.0193 48.6185V15.5159C92.0193 14.9113 92.1327 14.4955 92.3594 14.2688C92.5861 14.0421 93.0018 13.9287 93.6064 13.9287H102.041C105.971 13.9287 107.936 15.8937 107.936 19.8236V27.8046C107.936 28.5302 107.679 29.4068 107.165 30.4347C107.014 30.7067 107.044 30.9637 107.256 31.2056C108.223 32.2334 108.707 33.4426 108.707 34.8332V44.3106C108.707 48.2406 106.742 50.2056 102.812 50.2056H93.6064C92.5483 50.2056 92.0193 49.6766 92.0193 48.6185ZM100.68 33.9264H98.5945C98.0805 33.9264 97.7253 34.0246 97.5288 34.2212C97.3323 34.4176 97.234 34.7728 97.234 35.2867V43.6304C97.234 44.1443 97.3323 44.4996 97.5288 44.6961C97.7253 44.8926 98.0804 44.9909 98.5945 44.9909H100.182C101.391 44.9909 102.245 44.8095 102.744 44.4467C103.243 44.0839 103.492 43.2374 103.492 41.9072V37.0099C103.492 35.7705 103.273 34.9542 102.834 34.5612C102.396 34.1682 101.678 33.9566 100.68 33.9264ZM99.4106 19.1435H98.5945C98.0805 19.1435 97.7253 19.2417 97.5288 19.4383C97.3323 19.6348 97.234 19.99 97.234 20.5039V27.3512C97.234 27.8349 97.3323 28.1825 97.5288 28.3942C97.7253 28.6058 98.0804 28.7116 98.5945 28.7116H99.4106C100.62 28.7116 101.474 28.5302 101.973 28.1673C102.472 27.8046 102.721 26.9581 102.721 25.6279V22.2269C102.721 20.8968 102.472 20.0504 101.973 19.6875C101.474 19.3248 100.62 19.1435 99.4106 19.1435Z" fill="#7A7A7A"/>
</g>
</g>
<defs>
<clipPath id="clip0_2081_6510">
<rect width="150" height="50" fill="white" transform="translate(0 0.480469)"/>
</clipPath>
<clipPath id="clip1_2081_6510">
<rect width="68.6274" height="50" fill="white" transform="translate(40.6865 0.480469)"/>
</clipPath>
</defs>
</svg>
