<svg width="25" height="25" viewBox="0 0 25 25" fill="none" xmlns="http://www.w3.org/2000/svg">
<g clip-path="url(#clip0_2081_6520)">
<g clip-path="url(#clip1_2081_6520)">
<g clip-path="url(#clip2_2081_6520)">
<mask id="mask0_2081_6520" style="mask-type:luminance" maskUnits="userSpaceOnUse" x="0" y="0" width="25" height="25">
<path d="M24.3301 0.480469H0.330078V24.4805H24.3301V0.480469Z" fill="white"/>
</mask>
<g mask="url(#mask0_2081_6520)">
<path fill-rule="evenodd" clip-rule="evenodd" d="M7.37366 0.627744C5.42021 0.715884 3.72705 1.19348 2.35987 2.55489C0.987912 3.92345 0.516248 5.62332 0.427888 7.55645C0.372962 8.76303 0.0517808 17.8784 0.983138 20.2689C1.61121 21.8817 2.8482 23.1216 4.4757 23.7517C5.2351 24.0472 6.102 24.2471 7.37366 24.3055C18.0066 24.7867 21.9482 24.5247 23.6103 20.2689C23.9052 19.5114 24.1082 18.6453 24.1644 17.3768C24.6503 6.71652 24.0855 4.40584 22.2324 2.55489C20.7625 1.08866 19.0335 0.0905638 7.37366 0.627744ZM7.47155 22.1615C6.30735 22.1092 5.67572 21.9151 5.25422 21.752C4.1939 21.3399 3.39749 20.5466 2.98793 19.4926C2.27866 17.6761 2.51389 9.04909 2.57718 7.65313C2.63927 6.28576 2.91629 5.03607 3.88107 4.07129C5.07512 2.88021 6.61782 2.29646 17.1218 2.77052C18.4926 2.83245 19.7452 3.10889 20.7123 4.07129C21.9064 5.26238 22.4987 6.81695 22.0163 17.2807C21.9637 18.442 21.7691 19.0722 21.6055 19.4926C20.5249 22.2619 18.0388 22.6463 7.47155 22.1615ZM17.2376 6.10802C17.2376 6.89652 17.8789 7.5377 18.6706 7.5377C19.4622 7.5377 20.1046 6.89652 20.1046 6.10802C20.1046 5.31952 19.4622 4.67892 18.6706 4.67892C17.8789 4.67892 17.2376 5.31952 17.2376 6.10802ZM6.16527 12.4661C6.16527 15.844 8.9104 18.5826 12.2967 18.5826C15.683 18.5826 18.4282 15.844 18.4282 12.4661C18.4282 9.0881 15.683 6.35119 12.2967 6.35119C8.9104 6.35119 6.16527 9.0881 6.16527 12.4661ZM8.31695 12.4661C8.31695 10.2744 10.0985 8.49629 12.2967 8.49629C14.495 8.49629 16.2764 10.2744 16.2764 12.4661C16.2764 14.6588 14.495 16.4375 12.2967 16.4375C10.0985 16.4375 8.31695 14.6588 8.31695 12.4661Z" fill="#C8C8C8"/>
</g>
</g>
</g>
</g>
<defs>
<clipPath id="clip0_2081_6520">
<rect width="24" height="24" fill="white" transform="translate(0.330078 0.480469)"/>
</clipPath>
<clipPath id="clip1_2081_6520">
<rect width="24" height="24" fill="white" transform="translate(0.330078 0.480469)"/>
</clipPath>
<clipPath id="clip2_2081_6520">
<rect width="24" height="24" fill="white" transform="translate(0.330078 0.480469)"/>
</clipPath>
</defs>
</svg>
