<svg width="1042" height="5" viewBox="0 0 1042 5" fill="none" xmlns="http://www.w3.org/2000/svg">
<mask id="path-1-inside-1_2081_6422" fill="white">
<path d="M0 0.799805H1042V4.7998H0V0.799805Z"/>
</mask>
<path d="M1042 0.799805V-1.2002H1038.01V0.799805V2.7998H1042V0.799805ZM1034.02 0.799805V-1.2002H1026.03V0.799805V2.7998H1034.02V0.799805ZM1022.04 0.799805V-1.2002H1014.05V0.799805V2.7998H1022.04V0.799805ZM1010.06 0.799805V-1.2002H1002.08V0.799805V2.7998H1010.06V0.799805ZM998.084 0.799805V-1.2002H990.1V0.799805V2.7998H998.084V0.799805ZM986.107 0.799805V-1.2002H978.123V0.799805V2.7998H986.107V0.799805ZM974.13 0.799805V-1.2002H966.146V0.799805V2.7998H974.13V0.799805ZM962.153 0.799805V-1.2002H954.169V0.799805V2.7998H962.153V0.799805ZM950.176 0.799805V-1.2002H942.192V0.799805V2.7998H950.176V0.799805ZM938.199 0.799805V-1.2002H930.215V0.799805V2.7998H938.199V0.799805ZM926.222 0.799805V-1.2002H918.238V0.799805V2.7998H926.222V0.799805ZM914.245 0.799805V-1.2002H906.261V0.799805V2.7998H914.245V0.799805ZM902.268 0.799805V-1.2002H894.284V0.799805V2.7998H902.268V0.799805ZM890.291 0.799805V-1.2002H882.307V0.799805V2.7998H890.291V0.799805ZM878.314 0.799805V-1.2002H870.329V0.799805V2.7998H878.314V0.799805ZM866.337 0.799805V-1.2002H858.352V0.799805V2.7998H866.337V0.799805ZM854.36 0.799805V-1.2002H846.375V0.799805V2.7998H854.36V0.799805ZM842.383 0.799805V-1.2002H834.398V0.799805V2.7998H842.383V0.799805ZM830.406 0.799805V-1.2002H822.421V0.799805V2.7998H830.406V0.799805ZM818.429 0.799805V-1.2002H810.444V0.799805V2.7998H818.429V0.799805ZM806.452 0.799805V-1.2002H798.467V0.799805V2.7998H806.452V0.799805ZM794.475 0.799805V-1.2002H786.49V0.799805V2.7998H794.475V0.799805ZM782.498 0.799805V-1.2002H774.513V0.799805V2.7998H782.498V0.799805ZM770.521 0.799805V-1.2002H762.536V0.799805V2.7998H770.521V0.799805ZM758.544 0.799805V-1.2002H750.559V0.799805V2.7998H758.544V0.799805ZM746.567 0.799805V-1.2002H738.582V0.799805V2.7998H746.567V0.799805ZM734.59 0.799805V-1.2002H726.605V0.799805V2.7998H734.59V0.799805ZM722.613 0.799805V-1.2002H714.628V0.799805V2.7998H722.613V0.799805ZM710.636 0.799805V-1.2002H702.651V0.799805V2.7998H710.636V0.799805ZM698.659 0.799805V-1.2002H690.674V0.799805V2.7998H698.659V0.799805ZM686.682 0.799805V-1.2002H678.697V0.799805V2.7998H686.682V0.799805ZM674.705 0.799805V-1.2002H666.72V0.799805V2.7998H674.705V0.799805ZM662.728 0.799805V-1.2002H654.743V0.799805V2.7998H662.728V0.799805ZM650.751 0.799805V-1.2002H642.766V0.799805V2.7998H650.751V0.799805ZM638.774 0.799805V-1.2002H630.789V0.799805V2.7998H638.774V0.799805ZM626.797 0.799805V-1.2002H618.812V0.799805V2.7998H626.797V0.799805ZM614.82 0.799805V-1.2002H606.835V0.799805V2.7998H614.82V0.799805ZM602.843 0.799805V-1.2002H594.858V0.799805V2.7998H602.843V0.799805ZM590.866 0.799805V-1.2002H582.881V0.799805V2.7998H590.866V0.799805ZM578.889 0.799805V-1.2002H570.904V0.799805V2.7998H578.889V0.799805ZM566.912 0.799805V-1.2002H558.927V0.799805V2.7998H566.912V0.799805ZM554.935 0.799805V-1.2002H546.95V0.799805V2.7998H554.935V0.799805ZM542.958 0.799805V-1.2002H534.973V0.799805V2.7998H542.958V0.799805ZM530.981 0.799805V-1.2002H522.996V0.799805V2.7998H530.981V0.799805ZM519.004 0.799805V-1.2002H511.019V0.799805V2.7998H519.004V0.799805ZM507.027 0.799805V-1.2002H499.042V0.799805V2.7998H507.027V0.799805ZM495.05 0.799805V-1.2002H487.065V0.799805V2.7998H495.05V0.799805ZM483.073 0.799805V-1.2002H475.088V0.799805V2.7998H483.073V0.799805ZM471.096 0.799805V-1.2002H463.111V0.799805V2.7998H471.096V0.799805ZM459.119 0.799805V-1.2002H451.134V0.799805V2.7998H459.119V0.799805ZM447.142 0.799805V-1.2002H439.157V0.799805V2.7998H447.142V0.799805ZM435.165 0.799805V-1.2002H427.18V0.799805V2.7998H435.165V0.799805ZM423.188 0.799805V-1.2002H415.203V0.799805V2.7998H423.188V0.799805ZM411.211 0.799805V-1.2002H403.226V0.799805V2.7998H411.211V0.799805ZM399.234 0.799805V-1.2002H391.249V0.799805V2.7998H399.234V0.799805ZM387.257 0.799805V-1.2002H379.272V0.799805V2.7998H387.257V0.799805ZM375.28 0.799805V-1.2002H367.295V0.799805V2.7998H375.28V0.799805ZM363.303 0.799805V-1.2002H355.318V0.799805V2.7998H363.303V0.799805ZM351.326 0.799805V-1.2002H343.341V0.799805V2.7998H351.326V0.799805ZM339.349 0.799805V-1.2002H331.364V0.799805V2.7998H339.349V0.799805ZM327.372 0.799805V-1.2002H319.387V0.799805V2.7998H327.372V0.799805ZM315.395 0.799805V-1.2002H307.41V0.799805V2.7998H315.395V0.799805ZM303.418 0.799805V-1.2002H295.433V0.799805V2.7998H303.418V0.799805ZM291.441 0.799805V-1.2002H283.456V0.799805V2.7998H291.441V0.799805ZM279.464 0.799805V-1.2002H271.479V0.799805V2.7998H279.464V0.799805ZM267.487 0.799805V-1.2002H259.502V0.799805V2.7998H267.487V0.799805ZM255.51 0.799805V-1.2002H247.525V0.799805V2.7998H255.51V0.799805ZM243.533 0.799805V-1.2002H235.548V0.799805V2.7998H243.533V0.799805ZM231.556 0.799805V-1.2002H223.571V0.799805V2.7998H231.556V0.799805ZM219.579 0.799805V-1.2002H211.594V0.799805V2.7998H219.579V0.799805ZM207.602 0.799805V-1.2002H199.617V0.799805V2.7998H207.602V0.799805ZM195.625 0.799805V-1.2002H187.64V0.799805V2.7998H195.625V0.799805ZM183.648 0.799805V-1.2002H175.663V0.799805V2.7998H183.648V0.799805ZM171.671 0.799805V-1.2002H163.686V0.799805V2.7998H171.671V0.799805ZM159.694 0.799805V-1.2002H151.709V0.799805V2.7998H159.694V0.799805ZM147.717 0.799805V-1.2002H139.732V0.799805V2.7998H147.717V0.799805ZM135.74 0.799805V-1.2002H127.755V0.799805V2.7998H135.74V0.799805ZM123.763 0.799805V-1.2002H115.778V0.799805V2.7998H123.763V0.799805ZM111.786 0.799805V-1.2002H103.801V0.799805V2.7998H111.786V0.799805ZM99.809 0.799805V-1.2002H91.8242V0.799805V2.7998H99.809V0.799805ZM87.8319 0.799805V-1.2002H79.8473V0.799805V2.7998H87.8319V0.799805ZM75.855 0.799805V-1.2002H67.8703V0.799805V2.7998H75.855V0.799805ZM63.878 0.799805V-1.2002H55.8933V0.799805V2.7998H63.878V0.799805ZM51.901 0.799805V-1.2002H43.9163V0.799805V2.7998H51.901V0.799805ZM39.924 0.799805V-1.2002H31.9393V0.799805V2.7998H39.924V0.799805ZM27.947 0.799805V-1.2002H19.9623V0.799805V2.7998H27.947V0.799805ZM15.97 0.799805V-1.2002H7.98535V0.799805V2.7998H15.97V0.799805ZM3.99305 0.799805V-1.2002H0V0.799805V2.7998H3.99305V0.799805ZM1042 0.799805V-3.2002H1038.01V0.799805V4.7998H1042V0.799805ZM1034.02 0.799805V-3.2002H1026.03V0.799805V4.7998H1034.02V0.799805ZM1022.04 0.799805V-3.2002H1014.05V0.799805V4.7998H1022.04V0.799805ZM1010.06 0.799805V-3.2002H1002.08V0.799805V4.7998H1010.06V0.799805ZM998.084 0.799805V-3.2002H990.1V0.799805V4.7998H998.084V0.799805ZM986.107 0.799805V-3.2002H978.123V0.799805V4.7998H986.107V0.799805ZM974.13 0.799805V-3.2002H966.146V0.799805V4.7998H974.13V0.799805ZM962.153 0.799805V-3.2002H954.169V0.799805V4.7998H962.153V0.799805ZM950.176 0.799805V-3.2002H942.192V0.799805V4.7998H950.176V0.799805ZM938.199 0.799805V-3.2002H930.215V0.799805V4.7998H938.199V0.799805ZM926.222 0.799805V-3.2002H918.238V0.799805V4.7998H926.222V0.799805ZM914.245 0.799805V-3.2002H906.261V0.799805V4.7998H914.245V0.799805ZM902.268 0.799805V-3.2002H894.284V0.799805V4.7998H902.268V0.799805ZM890.291 0.799805V-3.2002H882.307V0.799805V4.7998H890.291V0.799805ZM878.314 0.799805V-3.2002H870.329V0.799805V4.7998H878.314V0.799805ZM866.337 0.799805V-3.2002H858.352V0.799805V4.7998H866.337V0.799805ZM854.36 0.799805V-3.2002H846.375V0.799805V4.7998H854.36V0.799805ZM842.383 0.799805V-3.2002H834.398V0.799805V4.7998H842.383V0.799805ZM830.406 0.799805V-3.2002H822.421V0.799805V4.7998H830.406V0.799805ZM818.429 0.799805V-3.2002H810.444V0.799805V4.7998H818.429V0.799805ZM806.452 0.799805V-3.2002H798.467V0.799805V4.7998H806.452V0.799805ZM794.475 0.799805V-3.2002H786.49V0.799805V4.7998H794.475V0.799805ZM782.498 0.799805V-3.2002H774.513V0.799805V4.7998H782.498V0.799805ZM770.521 0.799805V-3.2002H762.536V0.799805V4.7998H770.521V0.799805ZM758.544 0.799805V-3.2002H750.559V0.799805V4.7998H758.544V0.799805ZM746.567 0.799805V-3.2002H738.582V0.799805V4.7998H746.567V0.799805ZM734.59 0.799805V-3.2002H726.605V0.799805V4.7998H734.59V0.799805ZM722.613 0.799805V-3.2002H714.628V0.799805V4.7998H722.613V0.799805ZM710.636 0.799805V-3.2002H702.651V0.799805V4.7998H710.636V0.799805ZM698.659 0.799805V-3.2002H690.674V0.799805V4.7998H698.659V0.799805ZM686.682 0.799805V-3.2002H678.697V0.799805V4.7998H686.682V0.799805ZM674.705 0.799805V-3.2002H666.72V0.799805V4.7998H674.705V0.799805ZM662.728 0.799805V-3.2002H654.743V0.799805V4.7998H662.728V0.799805ZM650.751 0.799805V-3.2002H642.766V0.799805V4.7998H650.751V0.799805ZM638.774 0.799805V-3.2002H630.789V0.799805V4.7998H638.774V0.799805ZM626.797 0.799805V-3.2002H618.812V0.799805V4.7998H626.797V0.799805ZM614.82 0.799805V-3.2002H606.835V0.799805V4.7998H614.82V0.799805ZM602.843 0.799805V-3.2002H594.858V0.799805V4.7998H602.843V0.799805ZM590.866 0.799805V-3.2002H582.881V0.799805V4.7998H590.866V0.799805ZM578.889 0.799805V-3.2002H570.904V0.799805V4.7998H578.889V0.799805ZM566.912 0.799805V-3.2002H558.927V0.799805V4.7998H566.912V0.799805ZM554.935 0.799805V-3.2002H546.95V0.799805V4.7998H554.935V0.799805ZM542.958 0.799805V-3.2002H534.973V0.799805V4.7998H542.958V0.799805ZM530.981 0.799805V-3.2002H522.996V0.799805V4.7998H530.981V0.799805ZM519.004 0.799805V-3.2002H511.019V0.799805V4.7998H519.004V0.799805ZM507.027 0.799805V-3.2002H499.042V0.799805V4.7998H507.027V0.799805ZM495.05 0.799805V-3.2002H487.065V0.799805V4.7998H495.05V0.799805ZM483.073 0.799805V-3.2002H475.088V0.799805V4.7998H483.073V0.799805ZM471.096 0.799805V-3.2002H463.111V0.799805V4.7998H471.096V0.799805ZM459.119 0.799805V-3.2002H451.134V0.799805V4.7998H459.119V0.799805ZM447.142 0.799805V-3.2002H439.157V0.799805V4.7998H447.142V0.799805ZM435.165 0.799805V-3.2002H427.18V0.799805V4.7998H435.165V0.799805ZM423.188 0.799805V-3.2002H415.203V0.799805V4.7998H423.188V0.799805ZM411.211 0.799805V-3.2002H403.226V0.799805V4.7998H411.211V0.799805ZM399.234 0.799805V-3.2002H391.249V0.799805V4.7998H399.234V0.799805ZM387.257 0.799805V-3.2002H379.272V0.799805V4.7998H387.257V0.799805ZM375.28 0.799805V-3.2002H367.295V0.799805V4.7998H375.28V0.799805ZM363.303 0.799805V-3.2002H355.318V0.799805V4.7998H363.303V0.799805ZM351.326 0.799805V-3.2002H343.341V0.799805V4.7998H351.326V0.799805ZM339.349 0.799805V-3.2002H331.364V0.799805V4.7998H339.349V0.799805ZM327.372 0.799805V-3.2002H319.387V0.799805V4.7998H327.372V0.799805ZM315.395 0.799805V-3.2002H307.41V0.799805V4.7998H315.395V0.799805ZM303.418 0.799805V-3.2002H295.433V0.799805V4.7998H303.418V0.799805ZM291.441 0.799805V-3.2002H283.456V0.799805V4.7998H291.441V0.799805ZM279.464 0.799805V-3.2002H271.479V0.799805V4.7998H279.464V0.799805ZM267.487 0.799805V-3.2002H259.502V0.799805V4.7998H267.487V0.799805ZM255.51 0.799805V-3.2002H247.525V0.799805V4.7998H255.51V0.799805ZM243.533 0.799805V-3.2002H235.548V0.799805V4.7998H243.533V0.799805ZM231.556 0.799805V-3.2002H223.571V0.799805V4.7998H231.556V0.799805ZM219.579 0.799805V-3.2002H211.594V0.799805V4.7998H219.579V0.799805ZM207.602 0.799805V-3.2002H199.617V0.799805V4.7998H207.602V0.799805ZM195.625 0.799805V-3.2002H187.64V0.799805V4.7998H195.625V0.799805ZM183.648 0.799805V-3.2002H175.663V0.799805V4.7998H183.648V0.799805ZM171.671 0.799805V-3.2002H163.686V0.799805V4.7998H171.671V0.799805ZM159.694 0.799805V-3.2002H151.709V0.799805V4.7998H159.694V0.799805ZM147.717 0.799805V-3.2002H139.732V0.799805V4.7998H147.717V0.799805ZM135.74 0.799805V-3.2002H127.755V0.799805V4.7998H135.74V0.799805ZM123.763 0.799805V-3.2002H115.778V0.799805V4.7998H123.763V0.799805ZM111.786 0.799805V-3.2002H103.801V0.799805V4.7998H111.786V0.799805ZM99.809 0.799805V-3.2002H91.8242V0.799805V4.7998H99.809V0.799805ZM87.8319 0.799805V-3.2002H79.8473V0.799805V4.7998H87.8319V0.799805ZM75.855 0.799805V-3.2002H67.8703V0.799805V4.7998H75.855V0.799805ZM63.878 0.799805V-3.2002H55.8933V0.799805V4.7998H63.878V0.799805ZM51.901 0.799805V-3.2002H43.9163V0.799805V4.7998H51.901V0.799805ZM39.924 0.799805V-3.2002H31.9393V0.799805V4.7998H39.924V0.799805ZM27.947 0.799805V-3.2002H19.9623V0.799805V4.7998H27.947V0.799805ZM15.97 0.799805V-3.2002H7.98535V0.799805V4.7998H15.97V0.799805ZM3.99305 0.799805V-3.2002H0V0.799805V4.7998H3.99305V0.799805Z" fill="#4C4C4C" mask="url(#path-1-inside-1_2081_6422)"/>
</svg>
