<svg width="83" height="62" viewBox="0 0 83 62" fill="none" xmlns="http://www.w3.org/2000/svg">
<g clip-path="url(#clip0_2081_6195)">
<g clip-path="url(#clip1_2081_6195)">
<g clip-path="url(#clip2_2081_6195)">
<path fill-rule="evenodd" clip-rule="evenodd" d="M18.3402 8.79996C18.4802 7.75996 18.5802 6.63996 18.7302 5.61996L18.8602 4.56996L18.9602 3.76996C18.9702 3.64996 18.9602 3.53996 19.0102 3.53996H20.8802L21.0302 4.72996L21.1702 5.90996L21.3202 7.09996C21.3802 7.49996 21.4202 7.88996 21.4602 8.28996L21.9002 11.84C21.9302 12.02 21.9302 11.99 21.7402 11.99H20.7402L20.5702 10.13L20.5502 9.86996H19.3202L19.2702 10.4L19.1702 11.46C19.1702 11.63 19.1402 11.82 19.1202 11.99H17.9502L18.0102 11.44C18.1302 10.59 18.2202 9.65996 18.3402 8.78996V8.79996ZM19.5902 7.26996C19.5602 7.44996 19.5602 7.61996 19.5402 7.79996L19.4402 8.86996H20.4402L20.1402 5.36996C20.1202 5.29996 20.1202 5.16996 20.1202 5.09996C20.1202 4.92996 20.0802 4.73996 20.0802 4.55996H19.8202C19.7702 4.55996 19.7802 4.60996 19.7802 4.66996L19.7502 5.08996C19.7102 5.59996 19.6502 6.21996 19.6302 6.72996L19.5902 7.26996ZM27.9202 7.74996L27.9402 9.84996L27.9602 10.1C27.9602 10.3 27.9602 10.67 28.0302 10.82C28.1702 11.11 28.4802 11.12 28.7902 11.12H34.8102C34.9802 11.12 35.1502 11.12 35.2802 11.07C35.3802 11.03 35.4502 10.98 35.5102 10.9C35.6502 10.71 35.6302 10.35 35.6302 10.12L35.6502 9.86996L35.6702 7.82996L35.6602 7.31996L35.6502 5.76996L35.6302 5.26996C35.6302 4.74996 35.5802 4.39996 34.9502 4.39996H28.6302C28.2902 4.39996 28.0702 4.52996 28.0002 4.79996C27.9702 4.88996 27.9502 5.16996 27.9602 5.25996L27.9402 5.74996L27.9202 7.74996ZM58.1202 7.00996L57.9502 8.86996H58.9502L58.9102 8.32996C58.8802 7.85996 58.7902 7.32996 58.7702 6.84996L58.7602 6.72996C58.7602 6.64996 58.7602 6.52996 58.7402 6.44996L58.6202 4.82996L58.6002 4.55996H58.3102L58.2902 4.82996L58.2302 5.64996L58.1302 7.00996H58.1202ZM62.2202 4.55996V7.93996H62.5902C63.2502 7.93996 63.4402 7.73996 63.4402 7.11996L63.4502 6.84996V5.63996L63.4402 5.37996C63.4402 4.47996 62.9902 4.55996 62.2302 4.55996H62.2202ZM22.4702 8.85996H23.5202C23.5802 8.85996 23.5502 8.94996 23.5502 9.02996V9.23996C23.5102 9.60996 23.5502 10.03 23.5502 10.4C23.5502 10.87 23.7502 11.13 24.2502 11.12C24.8102 11.11 24.8502 10.81 24.9002 10.36V10.12C24.9302 9.92996 24.9002 9.69996 24.9002 9.51996L24.8902 9.15996C24.8764 8.95656 24.8184 8.75861 24.7202 8.57996C24.4002 8.15996 23.2002 8.35996 22.7102 7.57996C22.3502 6.99996 22.4102 6.07996 22.4102 5.35996C22.4102 4.76996 22.5202 4.24996 22.8002 3.92996C22.8686 3.85051 22.9497 3.78293 23.0402 3.72996C23.3102 3.55996 23.6702 3.47996 24.0402 3.45996H24.3902C24.6502 3.46996 24.9102 3.51996 25.1102 3.58996C25.3302 3.66996 25.5102 3.78996 25.6302 3.94996C26.1302 4.56996 25.9902 5.74996 25.9902 6.58996H24.8902L24.9002 5.76996C24.9002 5.43996 24.9402 4.83996 24.7802 4.61996C24.5802 4.36996 24.1202 4.34996 23.8602 4.46996C23.7707 4.51399 23.6998 4.58844 23.6602 4.67996C23.6002 4.77996 23.5802 4.87996 23.5602 5.00996L23.5502 5.20996V5.40996C23.5502 5.86996 23.5102 6.45996 23.6702 6.85996C23.9002 7.38996 24.8602 7.13996 25.5002 7.68996C25.9502 8.05996 26.0502 8.78996 26.0502 9.41996C26.0502 10.42 26.1202 11.54 25.1702 11.92C24.9266 12.0108 24.6699 12.0614 24.4102 12.07H24.0802C23.8355 12.0588 23.5933 12.0151 23.3602 11.94C22.9602 11.81 22.7302 11.54 22.5902 11.15C22.4102 10.66 22.4402 9.84996 22.4402 9.27996C22.4402 9.19996 22.4702 9.01996 22.4702 8.86996V8.85996ZM26.8502 10.71C26.8146 10.3444 26.8013 9.9771 26.8102 9.60996L26.8002 9.25996L26.7902 7.75996V6.26996L26.8102 5.52996C26.8102 4.91996 26.8502 4.19996 27.3402 3.79996C27.6202 3.55996 28.1102 3.45996 28.5102 3.45996H35.0702C35.6302 3.45996 36.2402 3.60996 36.5202 4.11996C36.6102 4.25996 36.6702 4.44996 36.7102 4.62996C36.7402 4.76996 36.7602 4.95996 36.7602 5.11996L36.7802 5.27996V5.95996L36.8002 7.34996L36.7902 9.58996C36.7902 9.71996 36.7702 9.79996 36.7802 9.92996C36.7802 10.3 36.7802 10.54 36.7002 10.91C36.6402 11.26 36.4702 11.58 36.1802 11.78C35.9302 11.96 35.5002 12.07 35.0702 12.07H28.5002C27.5302 12.07 26.9602 11.67 26.8402 10.71H26.8502ZM37.6702 10.93C37.586 10.4078 37.5558 9.87832 37.5802 9.34996L37.6102 8.99996C37.6102 8.93996 37.5902 8.86996 37.6502 8.86996H38.7002L38.6802 9.10996V9.58996C38.6802 9.86996 38.6702 10.52 38.7402 10.73C38.7802 10.86 38.8402 10.94 38.9402 11.02C39.0629 11.0784 39.1962 11.1112 39.3321 11.1163C39.4679 11.1215 39.6033 11.0989 39.7302 11.05C40.0702 10.89 40.0602 10.35 40.0602 9.94996C40.0602 9.52996 40.0702 8.86996 39.8402 8.56996C39.7302 8.40996 39.5402 8.36996 39.3302 8.31996L38.7202 8.15996C38.4202 8.07996 38.0702 7.89996 37.8902 7.63996C37.4902 7.03996 37.5502 6.16996 37.5502 5.41996C37.5502 5.01996 37.6002 4.50996 37.7902 4.15996C37.8302 4.08996 37.8502 4.03996 37.9202 3.95996C38.0502 3.78996 38.2302 3.65996 38.4602 3.58996C38.6802 3.50996 38.9602 3.45996 39.2502 3.45996C39.8002 3.45996 40.3802 3.49996 40.7502 3.92996C41.2102 4.43996 41.1502 5.38996 41.1502 6.09996L41.1302 6.59996H40.0302C40.0302 6.21996 40.0802 5.06996 40.0002 4.79996C39.9738 4.6941 39.9142 4.59946 39.8302 4.52996L39.6602 4.43996C39.4202 4.34996 38.9302 4.36996 38.7802 4.70996C38.6602 4.96996 38.6802 5.57996 38.6802 5.93996L38.7002 6.10996C38.7002 6.40996 38.7102 6.65996 38.8502 6.90996C39.1002 7.40996 40.4702 7.10996 40.9302 8.04996C41.1002 8.37996 41.1902 8.82996 41.1902 9.31996C41.1902 9.84996 41.2102 10.39 41.1102 10.89C41.0502 11.16 40.9802 11.33 40.8302 11.54C40.5802 11.92 39.9702 12.07 39.4902 12.07C38.5602 12.07 37.8902 11.91 37.6702 10.93ZM42.2602 11.5C42.0738 11.1989 41.9703 10.8539 41.9602 10.5L41.9402 6.93996L41.9502 5.28996L41.9702 5.12996C41.9702 4.72996 42.0702 4.29996 42.3302 3.99996L42.3702 3.94996C42.5102 3.77996 42.7102 3.66996 42.9102 3.58996C43.4475 3.42919 44.0191 3.42226 44.5602 3.56996C44.6902 3.61996 44.9102 3.69996 45.0102 3.78996C45.0902 3.86996 45.1502 3.90996 45.2202 4.01996C45.3202 4.16996 45.3802 4.29996 45.4402 4.47996C45.5802 4.98996 45.5402 5.68996 45.5402 6.25996L45.5302 6.58996H44.3902V5.20996C44.3902 4.90996 44.3902 4.63996 44.1402 4.49996C44.0659 4.45852 43.9845 4.43138 43.9002 4.41996C43.5002 4.36996 43.2002 4.47996 43.1202 4.88996L43.0902 5.18996V5.81996L43.0702 6.77996C43.0702 7.43996 43.0502 8.37996 43.0802 9.02996V9.72996C43.0802 9.80996 43.1002 9.84996 43.0902 9.93996C43.0902 10.57 43.0302 11.12 43.7702 11.12C44.2602 11.12 44.4402 10.88 44.4402 10.39V8.87996H45.5802C45.5802 9.33996 45.6102 10.2 45.5602 10.64C45.5202 10.94 45.4402 11.22 45.3102 11.44C45.2402 11.54 45.1702 11.63 45.0702 11.71L44.9202 11.81C44.6902 11.97 44.2902 12.05 43.8802 12.07H43.6002C43.2002 12.05 42.8202 11.97 42.5902 11.82C42.4402 11.72 42.3602 11.65 42.2602 11.5ZM46.4202 11.94V3.57996C46.4202 3.54996 46.4202 3.53996 46.4602 3.53996H47.5602V7.19996H48.7802V3.53996H49.9202V12H48.7802V8.21996H47.5602V11.99H46.4602C46.4202 11.99 46.4202 11.98 46.4202 11.94ZM50.9102 11.99V3.53996H52.0002C52.0302 3.53996 52.0402 3.54996 52.0402 3.57996V11.94C52.0402 11.98 52.0302 11.99 52.0002 11.99H50.9002H50.9102ZM53.0102 11.99V3.53996H54.1602V10.96H56.0402V12H53.0202L53.0102 11.99ZM57.2502 5.61996L57.4902 3.63996C57.4902 3.58996 57.4802 3.53996 57.5302 3.53996H59.4002C59.4002 3.61996 59.4302 3.75996 59.4402 3.83996L59.5502 4.72996L59.6202 5.32996L59.8402 7.09996L59.9802 8.28996L60.1302 9.46996L60.2002 10.07L60.4202 11.84C60.4502 12.02 60.4502 11.99 60.2602 11.99H59.2602C59.2602 11.82 59.2202 11.63 59.2202 11.46L59.1602 10.93L59.0602 9.86996H57.8402L57.7602 10.67C57.7602 10.77 57.7602 10.84 57.7402 10.93L57.7002 11.46L57.6402 11.99H56.4702L56.7302 9.85996L56.8602 8.78996L56.9902 7.73996L57.2502 5.61996ZM61.0802 11.94V3.57996C61.0802 3.54996 61.0902 3.53996 61.1202 3.53996H62.5402C62.9102 3.53996 63.2602 3.55996 63.5602 3.63996C64.4202 3.87996 64.5802 4.66996 64.5802 5.44996L64.5902 5.71996V5.99996C64.5902 6.79996 64.6702 7.84996 64.2202 8.41996C64.1302 8.52996 63.9402 8.71996 63.8002 8.73996C63.8002 8.80996 63.8402 8.89996 63.8502 8.95996L63.9102 9.15996C63.9802 9.39996 64.7102 11.91 64.7102 11.99H63.5102L62.8102 9.28996L62.7602 9.09996C62.7302 9.00996 62.7302 8.94996 62.6802 8.94996H62.2302V11.99H61.1302C61.0902 11.99 61.0802 11.98 61.0802 11.94ZM68.6002 0.959961H14.0602C13.1602 0.959961 12.4102 1.69996 12.4102 2.60996V12.92C12.4102 13.82 13.1602 14.57 14.0602 14.57H68.6002C69.5102 14.57 70.2502 13.83 70.2502 12.92V2.60996C70.2502 1.69996 69.5102 0.959961 68.6002 0.959961Z" fill="white"/>
<path d="M14.88 48.66H18.46C19.38 48.66 19.84 49.12 19.84 50.04V54.22C19.84 59 17.45 61.39 12.68 61.39H7.16C2.4 61.39 0 59 0 54.22V24.46C0 19.69 2.39 17.3 7.16 17.3H12.68C17.45 17.3 19.84 19.69 19.84 24.46V28.66C19.84 29.57 19.38 30.03 18.46 30.03H14.88C13.96 30.03 13.5 29.57 13.5 28.65V27.38C13.5 25.81 13.3 24.78 12.9 24.33C12.5 23.87 11.5 23.63 9.92 23.63C8.56 23.63 7.62 23.85 7.11 24.27C6.59 24.69 6.34 25.73 6.34 27.38V51.3C6.34 52.96 6.59 54 7.11 54.42C7.62 54.84 8.56 55.05 9.91 55.05C10.61 55.05 11.12 55.03 11.44 55C11.74 54.96 12.1 54.83 12.48 54.61C12.87 54.39 13.13 54.01 13.28 53.48C13.43 52.95 13.5 52.22 13.5 51.3V50.04C13.5 49.12 13.96 48.66 14.88 48.66ZM22.04 59.46V18.68C22.04 17.76 22.5 17.3 23.42 17.3H27C27.92 17.3 28.38 17.76 28.38 18.68V53.4C28.38 54.02 28.5 54.45 28.74 54.7C28.98 54.93 29.41 55.05 30.04 55.05H36.15C37.07 55.05 37.53 55.51 37.53 56.43V60C37.53 60.92 37.07 61.38 36.15 61.38H23.97C23.24 61.38 22.73 61.24 22.46 60.97C22.18 60.69 22.04 60.18 22.04 59.45V59.46ZM52.74 50.76V18.67C52.74 17.75 53.2 17.29 54.12 17.29H57.7C58.62 17.29 59.08 17.75 59.08 18.67V54.21C59.08 58.99 56.69 61.38 51.92 61.38H46.35C41.57 61.38 39.18 58.99 39.18 54.21V18.68C39.18 17.76 39.64 17.3 40.56 17.3H44.14C45.06 17.3 45.52 17.76 45.52 18.68V50.75C45.52 52.45 45.78 53.58 46.29 54.17C46.81 54.76 47.69 55.05 48.94 55.05H49.27C50.59 55.05 51.5 54.77 52 54.2C52.5 53.63 52.74 52.48 52.74 50.75V50.76ZM62.39 59.46V19.23C62.39 18.49 62.52 17.99 62.8 17.71C63.08 17.44 63.58 17.3 64.32 17.3H74.57C79.34 17.3 81.73 19.69 81.73 24.46V34.16C81.73 35.05 81.42 36.11 80.79 37.36C80.61 37.69 80.65 38 80.9 38.3C82.048 39.4754 82.6842 41.0572 82.67 42.7V54.22C82.67 59 80.27 61.39 75.5 61.39H64.32C63.03 61.39 62.39 60.75 62.39 59.46ZM72.9 41.6H70.37C69.74 41.6 69.31 41.72 69.07 41.96C68.83 42.2 68.71 42.63 68.71 43.26V53.4C68.71 54.02 68.83 54.45 69.07 54.7C69.31 54.93 69.74 55.05 70.37 55.05H72.3C73.77 55.05 74.8 54.83 75.41 54.39C76.01 53.95 76.32 52.92 76.32 51.3V45.35C76.32 43.85 76.05 42.85 75.52 42.38C74.99 41.9 74.12 41.64 72.9 41.6ZM71.36 23.64H70.36C69.74 23.64 69.31 23.76 69.07 24C68.83 24.23 68.71 24.67 68.71 25.3V33.61C68.71 34.2 68.83 34.62 69.07 34.88C69.31 35.14 69.74 35.27 70.37 35.27H71.36C72.83 35.27 73.86 35.05 74.47 34.6C75.08 34.16 75.38 33.13 75.38 31.52V27.38C75.38 25.77 75.08 24.74 74.48 24.3C73.87 23.86 72.83 23.64 71.36 23.64Z" fill="white"/>
</g>
</g>
</g>
<defs>
<clipPath id="clip0_2081_6195">
<rect width="83" height="62" fill="white"/>
</clipPath>
<clipPath id="clip1_2081_6195">
<rect width="83" height="62" fill="white"/>
</clipPath>
<clipPath id="clip2_2081_6195">
<rect width="83" height="62" fill="white"/>
</clipPath>
</defs>
</svg>
