<svg width="39" height="38" viewBox="0 0 39 38" fill="none" xmlns="http://www.w3.org/2000/svg">
<g clip-path="url(#clip0_2081_6214)">
<g clip-path="url(#clip1_2081_6214)">
<g clip-path="url(#clip2_2081_6214)">
<path d="M19.4171 0.39567C9.45491 0.547693 1.31202 8.64046 1.09555 18.608C1.01975 21.9606 1.85566 25.271 3.51409 28.1857C3.57927 28.2996 3.67446 28.3933 3.78936 28.4568C3.90425 28.5203 4.03436 28.5509 4.16553 28.5454C4.29662 28.5399 4.42369 28.4983 4.53278 28.4254C4.64196 28.3525 4.72888 28.251 4.78425 28.1319C6.12775 25.2785 6.82236 22.1627 6.81811 19.0088C6.81501 17.0769 7.24785 15.1692 8.08442 13.4279C8.92099 11.6867 10.1397 10.1566 11.6499 8.95179C11.798 8.83591 11.9675 8.75046 12.1486 8.70016C12.3297 8.64979 12.519 8.63564 12.7057 8.65854C12.8923 8.68136 13.0726 8.74072 13.2363 8.83321C13.4 8.92579 13.5438 9.0496 13.6596 9.19769C13.7755 9.34587 13.8609 9.51531 13.9112 9.69644C13.9616 9.87767 13.9758 10.067 13.9529 10.2536C13.93 10.4402 13.8707 10.6205 13.7782 10.7841C13.6856 10.9479 13.5618 11.0917 13.4137 11.2075C12.2463 12.1454 11.3047 13.3338 10.6588 14.6849C10.0129 16.0358 9.67906 17.5149 9.68209 19.0124C9.68684 23.3086 8.54769 27.5288 6.38167 31.2392C6.30137 31.3755 6.26858 31.5346 6.28829 31.6916C6.30799 31.8486 6.37922 31.9946 6.49077 32.1068C6.84853 32.4646 7.22241 32.8224 7.60882 33.1479C7.68805 33.2144 7.7807 33.263 7.88048 33.2902C7.98024 33.3175 8.08467 33.3228 8.18673 33.3058C8.2887 33.2888 8.38586 33.2499 8.4714 33.1917C8.55693 33.1336 8.62881 33.0577 8.68213 32.969C10.2658 30.34 11.3904 27.4606 12.0076 24.454C12.0833 24.0821 12.3036 23.7554 12.6202 23.5459C12.9368 23.3365 13.3235 23.2612 13.6955 23.3369C14.0674 23.4126 14.3941 23.6329 14.6036 23.9495C14.8131 24.2659 14.8882 24.6527 14.8126 25.0248C14.1206 28.4171 12.8453 31.6637 11.0434 34.6202C10.9926 34.7042 10.9597 34.7979 10.9466 34.8952C10.9335 34.9925 10.9406 35.0915 10.9675 35.186C10.9944 35.2804 11.0404 35.3684 11.1026 35.4443C11.165 35.5203 11.2422 35.5825 11.3296 35.6273C11.7715 35.8509 12.2241 36.0584 12.6839 36.248C12.8426 36.316 13.0206 36.3244 13.1849 36.2714C13.3494 36.2185 13.489 36.1079 13.5783 35.96C16.6516 30.8552 18.2733 25.0085 18.2686 19.0499C18.2649 18.6826 18.4 18.3273 18.6467 18.0551C18.8933 17.7828 19.2336 17.6137 19.5995 17.5812C19.7958 17.5674 19.9927 17.5943 20.178 17.66C20.3634 17.7257 20.5332 17.8289 20.6769 17.9633C20.8206 18.0976 20.9351 18.26 21.0131 18.4405C21.0913 18.621 21.1313 18.8157 21.1308 19.0124C21.1379 25.0961 19.5852 31.0801 16.6211 36.3929C16.5641 36.4946 16.5327 36.6088 16.5299 36.7254C16.5271 36.8421 16.5528 36.9576 16.6048 37.062C16.6569 37.1664 16.7336 37.2566 16.8283 37.3245C16.9232 37.3925 17.0333 37.4362 17.1489 37.4519C17.6914 37.5271 18.2407 37.5783 18.7964 37.6057C18.9299 37.6107 19.0623 37.5782 19.1783 37.5118C19.2944 37.4454 19.3894 37.3478 19.4529 37.2302C22.428 31.6651 23.9872 25.4533 23.993 19.1429C24.002 16.7726 22.1505 14.762 19.7821 14.7173C19.2122 14.7063 18.646 14.809 18.1163 15.0192C17.5865 15.2293 17.104 15.5429 16.6967 15.9415C16.2894 16.3401 15.9656 16.8158 15.7441 17.341C15.5226 17.866 15.4077 18.4299 15.4065 18.9998C15.4038 19.3572 15.2693 19.701 15.0286 19.9651C14.7878 20.2293 14.458 20.3952 14.1024 20.4309C13.9041 20.4486 13.7042 20.4246 13.5157 20.3607C13.3271 20.2968 13.154 20.1941 13.0073 20.0594C12.8607 19.9248 12.7437 19.761 12.664 19.5785C12.5842 19.396 12.5435 19.1989 12.5443 18.9998C12.5443 18.0538 12.7318 17.1171 13.0961 16.244C13.4604 15.371 13.9941 14.5788 14.6665 13.9135C15.3389 13.2479 16.1367 12.7224 17.0136 12.3673C17.8903 12.0122 18.8289 11.8344 19.7749 11.8444C23.7103 11.8855 26.8731 15.2736 26.8533 19.2073C26.836 25.0421 25.585 30.8073 23.1826 36.1246C23.1281 36.2471 23.109 36.3825 23.1277 36.5153C23.1462 36.648 23.2017 36.7729 23.288 36.8756C23.3741 36.9784 23.4874 37.0549 23.6149 37.0964C23.7424 37.1378 23.879 37.1427 24.0091 37.1102C24.6297 36.9631 25.2423 36.7839 25.8445 36.5736C25.9384 36.5402 26.0242 36.4878 26.0966 36.4194C26.1689 36.351 26.2263 36.2683 26.2649 36.1764C27.0979 34.2022 27.7843 32.1693 28.3185 30.0943C28.3655 29.9122 28.4479 29.7412 28.561 29.5911C28.674 29.4408 28.8156 29.3143 28.9775 29.2188C29.1395 29.1233 29.3187 29.0606 29.5049 29.0343C29.6911 29.008 29.8806 29.0188 30.0626 29.0657C30.2447 29.1128 30.4157 29.1951 30.5659 29.3081C30.7162 29.4213 30.8426 29.5628 30.9381 29.7248C31.0336 29.8867 31.0964 30.0659 31.1226 30.2521C31.1489 30.4383 31.1382 30.6278 31.0912 30.8098C30.9576 31.331 30.8146 31.8498 30.6619 32.3663C30.617 32.5149 30.6217 32.6741 30.6752 32.8199C30.7287 32.9657 30.8283 33.0901 30.9588 33.1743C31.0894 33.2586 31.2436 33.298 31.3985 33.2868C31.5534 33.2756 31.7005 33.2143 31.8175 33.1121C34.7185 30.621 36.7815 27.2966 37.7255 23.5912C38.6697 19.8858 38.4491 15.9795 37.0938 12.404C35.7386 8.82839 33.3146 5.75727 30.1515 3.60859C26.9887 1.45991 23.2404 0.338018 19.4171 0.39567ZM32.2218 24.9174C32.1782 25.2627 32.0104 25.5803 31.7497 25.8108C31.4888 26.0413 31.153 26.1688 30.8049 26.1696C30.7452 26.1695 30.6855 26.166 30.6261 26.1588C30.4396 26.1356 30.2594 26.0759 30.096 25.9829C29.9326 25.8902 29.789 25.7661 29.6735 25.6177C29.5582 25.4694 29.473 25.2996 29.4231 25.1184C29.3732 24.9373 29.3596 24.7479 29.3829 24.5614C29.6111 22.7217 29.7256 20.8697 29.7263 19.0159C29.7225 16.3603 28.6658 13.8144 26.788 11.9366C24.9102 10.0587 22.3644 9.00208 19.7087 8.99824C19.2901 8.99807 18.8719 9.02376 18.4565 9.07519C18.0795 9.12262 17.6992 9.01844 17.3991 8.78537C17.099 8.55239 16.9038 8.20975 16.8563 7.83284C16.809 7.45585 16.9131 7.07551 17.1462 6.77547C17.3792 6.47535 17.7218 6.28015 18.0987 6.23271C19.912 6.00709 21.7526 6.16942 23.4984 6.7089C25.2443 7.2483 26.8555 8.15258 28.2255 9.36173C29.5955 10.5709 30.693 12.0573 31.4451 13.7227C32.1973 15.3879 32.587 17.1939 32.5885 19.0212C32.588 20.9924 32.4656 22.9615 32.2218 24.9174Z" fill="#BDBDBD"/>
</g>
</g>
</g>
<defs>
<clipPath id="clip0_2081_6214">
<rect width="38" height="38" fill="white" transform="translate(0.700195)"/>
</clipPath>
<clipPath id="clip1_2081_6214">
<rect width="38" height="38" fill="white" transform="translate(0.700195)"/>
</clipPath>
<clipPath id="clip2_2081_6214">
<rect width="38" height="38" fill="white" transform="translate(0.700195)"/>
</clipPath>
</defs>
</svg>
