<svg width="44" height="59" viewBox="0 0 44 59" fill="none" xmlns="http://www.w3.org/2000/svg">
<g clip-path="url(#clip0_2081_6403)">
<g clip-path="url(#clip1_2081_6403)">
<g clip-path="url(#clip2_2081_6403)">
<path d="M1.32171 34.7273H20.779L13.4634 55.4042C13.044 56.5974 13.9493 57.838 15.234 57.838H15.2673C15.7799 57.838 16.2658 57.6346 16.6186 57.2753L42.4662 30.9444C43.5113 29.8801 43.5113 28.1581 42.4662 27.0938L16.6186 0.762878C16.2658 0.403575 15.7732 0.200195 15.2673 0.200195C13.9693 0.200195 13.064 1.46115 13.5033 2.65431L21.0985 23.3109H1.31506C0.722619 23.3109 0.25 23.799 0.25 24.3956V33.6426C0.25 34.2459 0.729275 34.7273 1.31506 34.7273H1.32171Z" fill="#D5D5D5"/>
</g>
</g>
</g>
<defs>
<clipPath id="clip0_2081_6403">
<rect width="43" height="58" fill="white" transform="translate(0.25 0.200195)"/>
</clipPath>
<clipPath id="clip1_2081_6403">
<rect width="43" height="58" fill="white" transform="translate(0.25 0.200195)"/>
</clipPath>
<clipPath id="clip2_2081_6403">
<rect width="43" height="58" fill="white" transform="translate(0.25 0.200195)"/>
</clipPath>
</defs>
</svg>
