<svg width="25" height="25" viewBox="0 0 25 25" fill="none" xmlns="http://www.w3.org/2000/svg">
<g clip-path="url(#clip0_2081_6515)">
<g clip-path="url(#clip1_2081_6515)">
<g clip-path="url(#clip2_2081_6515)">
<path d="M16.9215 8.20458C16.926 8.20458 16.9321 8.20458 16.938 8.20458C17.0947 8.20458 17.2403 8.25122 17.3596 8.33157L17.3573 8.33014C17.4443 8.40258 17.5027 8.50446 17.517 8.61924V8.62139C17.5321 8.70892 17.5403 8.80935 17.5403 8.91194C17.5403 8.95857 17.5387 9.00448 17.535 9.0504V9.04394C17.3663 10.7434 16.6343 14.8649 16.2623 16.7674C16.1048 17.573 15.795 17.8428 15.495 17.8685C14.8433 17.9267 14.3483 17.4568 13.7168 17.0608C12.7283 16.4402 12.1695 16.0543 11.2103 15.4496C10.101 14.7515 10.8203 14.3662 11.4518 13.7393C11.6175 13.5742 14.4907 11.0742 14.547 10.8475C14.55 10.8338 14.5516 10.8188 14.5516 10.803C14.5516 10.747 14.5298 10.6961 14.4945 10.6573C14.4556 10.633 14.4067 10.6193 14.3558 10.6193C14.322 10.6193 14.2898 10.6258 14.2598 10.6365L14.2613 10.6358C14.1623 10.6573 12.5833 11.6555 9.52429 13.6303C9.19053 13.882 8.76904 14.0413 8.31004 14.06H8.30554C7.65528 13.9846 7.06504 13.8461 6.50479 13.6488L6.56029 13.666C5.85679 13.4466 5.29804 13.3311 5.34604 12.9595C5.37154 12.7663 5.65004 12.5685 6.18154 12.3662C9.45554 11.0017 11.6388 10.1023 12.7313 9.66806C13.9366 9.05614 15.3338 8.55252 16.803 8.22611L16.9215 8.20458ZM12.2775 1.7373C6.05104 1.75165 1.00879 6.58328 1.00879 12.5412C1.00879 18.5078 6.06529 23.3451 12.3038 23.3451C18.5423 23.3451 23.5987 18.5085 23.5987 12.5412C23.5987 6.58328 18.5566 1.75165 12.3316 1.7373H12.33C12.3126 1.7373 12.2951 1.7373 12.2775 1.7373Z" fill="#C8C8C8"/>
</g>
</g>
</g>
<defs>
<clipPath id="clip0_2081_6515">
<rect width="24" height="24" fill="white" transform="translate(0.330078 0.480469)"/>
</clipPath>
<clipPath id="clip1_2081_6515">
<rect width="24" height="24" fill="white" transform="translate(0.330078 0.480469)"/>
</clipPath>
<clipPath id="clip2_2081_6515">
<rect width="24" height="22.9565" fill="white" transform="translate(0.330078 1.00195)"/>
</clipPath>
</defs>
</svg>
